<?xml version="1.0" encoding="utf-8"?>
<svg width="211px" height="211px" viewBox="0 0 211 211" version="1.1" xmlns:xlink="http://www.w3.org/1999/xlink" xmlns="http://www.w3.org/2000/svg">
  <g id="expand-svgrepo-com">
    <g id="Group">
      <g id="Group">
        <path d="M3.90741 3.90747L207.093 3.90747L207.093 207.093L3.90741 207.093L3.90741 3.90747Z" id="Rectangle" fill="#337742" fill-rule="evenodd" stroke="none" />
        <path d="M211 211L0 211L0 0L211 0L211 211L211 211ZM7.81482 203.185L203.185 203.185L203.185 7.8147L7.81482 7.8147L7.81482 203.185L7.81482 203.185Z" id="Shape" fill="#337742" fill-rule="evenodd" stroke="none" />
      </g>
      <path d="M23.4445 191.463C22.4442 191.463 21.4439 191.08 20.6819 190.318C19.1541 188.79 19.1541 186.321 20.6819 184.793L87.1078 118.367C88.6356 116.839 91.1051 116.839 92.6329 118.367C94.1607 119.895 94.1607 122.364 92.6329 123.892L26.207 190.318C25.445 191.08 24.4447 191.463 23.4445 191.463L23.4445 191.463Z" id="Shape" fill="#FFFFFF" fill-rule="evenodd" stroke="none" />
      <path d="M78.7069 191.463L19.537 191.463L19.537 132.293L27.3519 132.293L27.3519 183.649L78.7069 183.649L78.7069 191.463Z" id="Polygon" fill="#FFFFFF" fill-rule="evenodd" stroke="none" />
      <path d="M121.13 93.7776C120.129 93.7776 119.129 93.3947 118.367 92.6327C116.839 91.1049 116.839 88.6354 118.367 87.1077L184.793 20.6817C186.321 19.1539 188.79 19.1539 190.318 20.6817C191.846 22.2095 191.846 24.679 190.318 26.2068L123.892 92.6327C123.13 93.3947 122.13 93.7776 121.13 93.7776L121.13 93.7776Z" id="Shape" fill="#FFFFFF" fill-rule="evenodd" stroke="none" />
      <path d="M191.463 78.7071L183.648 78.7071L183.648 27.352L132.293 27.352L132.293 19.5372L191.463 19.5372L191.463 78.7071Z" id="Polygon" fill="#FFFFFF" fill-rule="evenodd" stroke="none" />
    </g>
  </g>
</svg>