<?xml version="1.0" encoding="utf-8"?>
<svg width="211px" height="211px" viewBox="0 0 211 211" version="1.1" xmlns:xlink="http://www.w3.org/1999/xlink" xmlns="http://www.w3.org/2000/svg">
  <defs>
    <path d="M0 0L210.79 0L210.79 210.79L0 210.79L0 0Z" id="path_1" />
    <clipPath id="mask_1">
      <use xlink:href="#path_1" />
    </clipPath>
  </defs>
  <g id="paint-palette-svgrepo-com">
    <path d="M0 0L210.79 0L210.79 210.79L0 210.79L0 0Z" id="Background" fill="none" fill-rule="evenodd" stroke="none" />
    <g clip-path="url(#mask_1)">
      <g id="XMLID_227_" transform="translate(-0.00019836426 14.021851)">
        <path d="M115.19 92.7542C115.19 77.1113 120.443 62.696 129.279 51.1737C141.639 35.059 133.706 11.4758 114.138 6.03857C106.514 3.92015 98.4822 2.78018 90.1875 2.76217C41.1437 2.65816 0.691039 42.4345 0.00891617 91.473C-0.690638 141.761 39.8643 182.746 89.9922 182.746C98.2654 182.746 106.278 181.63 113.887 179.539C133.577 174.129 141.707 150.538 129.279 134.335C120.443 122.813 115.19 108.397 115.19 92.7542L115.19 92.7542Z" id="XMLID_42_" fill="#00D7DF" fill-rule="evenodd" stroke="none" />
        <path d="M16.3322 92.7542C16.3322 80.8261 26.0019 71.1564 37.9301 71.1564C49.8582 71.1564 59.5279 80.8261 59.5279 92.7542C59.5279 104.682 49.8582 114.352 37.9301 114.352C26.0019 114.352 16.3322 104.682 16.3322 92.7542Z" id="XMLID_41_" fill="#FFEB99" fill-rule="evenodd" stroke="none" />
        <path d="M210.79 35.9968C210.79 55.8771 199.509 71.9936 185.592 71.9936C171.676 71.9936 160.394 55.8772 160.394 35.9968C160.394 16.1165 185.592 0 185.592 0C185.592 0 210.79 16.1165 210.79 35.9968L210.79 35.9968Z" id="XMLID_228_" fill="#00D7DF" fill-rule="evenodd" stroke="none" />
        <path d="M203.591 63.1353L167.594 63.1353L167.594 86.3762L173.972 86.3762L173.972 182.746L197.213 182.746L197.213 86.3762L203.591 86.3762L203.591 63.1353Z" id="XMLID_229_" fill="#FFCD00" fill-rule="evenodd" stroke="none" />
        <path d="M115.19 92.7542C115.19 77.1113 120.443 62.6961 129.279 51.1738C141.639 35.059 133.706 11.4758 114.138 6.03859C106.514 3.92017 98.4822 2.7802 90.1875 2.76277C82.7004 2.74708 75.4155 3.6651 68.4397 5.39888L68.4397 180.141C75.3458 181.839 82.5627 182.746 89.9928 182.746C98.266 182.746 106.278 181.63 113.887 179.539C133.578 174.129 141.708 150.538 129.28 134.335C120.443 122.813 115.19 108.397 115.19 92.7542L115.19 92.7542Z" id="XMLID_230_" fill="#00969B" fill-rule="evenodd" stroke="none" />
        <g id="XMLID_231_" transform="translate(52.32904 20.76062)">
          <path d="M0 21.5979C0 9.66969 9.66969 0 21.5979 0C33.526 0 43.1957 9.66969 43.1957 21.5979C43.1957 33.526 33.526 43.1957 21.5979 43.1957C9.66969 43.1957 0 33.526 0 21.5979Z" id="XMLID_37_" fill="#FFEB99" fill-rule="evenodd" stroke="none" />
          <path d="M0 122.389C0 110.461 9.66969 100.791 21.5979 100.791C33.526 100.791 43.1957 110.461 43.1957 122.389C43.1957 134.317 33.526 143.987 21.5979 143.987C9.66969 143.987 0 134.317 0 122.389Z" id="XMLID_36_" fill="#FFEB99" fill-rule="evenodd" stroke="none" />
        </g>
        <path d="M73.9269 20.7606C72.0304 20.7606 70.1915 21.007 68.4391 21.466L68.4391 63.251C70.1915 63.71 72.0304 63.9563 73.9269 63.9563C85.8553 63.9563 95.5247 54.2863 95.5247 42.3585C95.5247 30.4306 85.8553 20.7606 73.9269 20.7606L73.9269 20.7606Z" id="XMLID_232_" fill="#FFE477" fill-rule="evenodd" stroke="none" />
        <path d="M73.9269 121.552C72.0304 121.552 70.1915 121.798 68.4391 122.257L68.4391 164.042C70.1915 164.501 72.0304 164.747 73.9269 164.747C85.8553 164.747 95.5247 155.077 95.5247 143.149C95.5247 131.222 85.8553 121.552 73.9269 121.552L73.9269 121.552Z" id="XMLID_233_" fill="#FFE477" fill-rule="evenodd" stroke="none" />
        <path d="M185.592 0C185.592 0 185.247 0.220789 184.644 0.638546L184.644 71.9593C184.959 71.9762 185.274 71.9936 185.592 71.9936C199.508 71.9936 210.79 55.8772 210.79 35.9968C210.79 16.1165 185.592 0 185.592 0L185.592 0Z" id="XMLID_235_" fill="#00969B" fill-rule="evenodd" stroke="none" />
        <path d="M184.644 63.1353L184.644 182.746L197.213 182.746L197.213 86.3762L203.591 86.3762L203.591 63.1353L184.644 63.1353Z" id="XMLID_236_" fill="#FFCD00" fill-rule="evenodd" stroke="none" />
      </g>
    </g>
  </g>
</svg>